<svg width="48" height="48" viewBox="0 0 48 48" fill="none" xmlns="http://www.w3.org/2000/svg">
<path fill-rule="evenodd" clip-rule="evenodd" d="M36.9287 4.12717C36.8706 5.10701 36.6202 5.91265 35.9379 6.59128C33.5816 8.94484 31.2295 11.3033 28.8774 13.6618L28.8758 13.6634L28.8757 13.6635C25.139 17.4104 21.4022 21.1574 17.6476 24.8852C15.6698 26.8485 12.3456 25.6183 11.7033 23.0707C11.3295 21.5828 11.7686 20.5231 12.7339 19.5542C18.6964 13.559 24.6662 7.57112 30.6504 1.59774C31.692 0.559841 33.0528 0.131615 34.4028 0.628792C35.9488 1.19855 36.8379 2.47234 36.925 4.1308L36.9287 4.12717ZM33.3258 19.114L33.3263 19.1135L33.3265 19.1133C34.0152 18.407 34.703 17.7015 35.3937 17.003C35.9126 16.4804 36.3953 16.4586 36.867 17.1372V25.3969C36.5368 25.7816 36.1122 25.9086 35.6078 25.905C33.3723 25.8904 31.1368 25.8832 28.905 25.8977C28.4368 25.8977 28.0739 25.7634 27.8925 25.3352C27.7074 24.8961 27.8743 24.5405 28.2118 24.2211C29.0356 23.4445 29.8413 22.6497 30.6433 21.8441L30.6469 21.8405C31.5465 20.9388 32.4369 20.0257 33.3258 19.114ZM19.6473 0.499248H12.0409C11.5328 0.818603 11.5038 1.2432 11.5038 1.70771C11.5183 3.88513 11.5292 6.06617 11.5038 8.24359C11.5002 8.49037 11.522 8.71899 11.5728 8.93311C11.7324 9.59722 12.5671 9.82222 13.0498 9.34319L13.057 9.33593C15.4885 6.90811 17.9163 4.48029 20.3332 2.04158C20.7941 1.57344 20.903 1.30489 20.6453 0.963764C20.4131 0.655296 20.032 0.499248 19.6473 0.499248Z" fill="#FCD344"/>
<path fill-rule="evenodd" clip-rule="evenodd" d="M9.92475 39.7175C9.90904 39.3587 9.89333 39 9.88227 38.6413V38.6392V34.404C9.88227 33.8975 9.68255 33.5063 9.20487 33.3045C8.40806 32.9689 7.66272 33.5351 7.66889 34.4637C7.67986 36.2693 7.69266 38.0758 7.70545 39.8827C7.71187 40.7893 7.71829 41.696 7.72449 42.6027C7.72654 42.8889 7.71625 43.1731 7.63801 43.451C7.28799 44.6987 6.14115 45.4626 4.84813 45.3082C3.64365 45.1641 2.68418 44.0852 2.66359 42.8086C2.6528 42.127 2.65445 41.4454 2.65609 40.7638V40.7637C2.65758 40.1441 2.65908 39.5245 2.65123 38.9048C2.64506 38.2707 2.16944 37.8218 1.56411 37.8177C0.927894 37.8157 0.452276 38.2666 0.448159 38.9254C0.446402 39.1608 0.444227 39.3961 0.442051 39.6316C0.431472 40.7762 0.420883 41.9218 0.458453 43.066C0.536693 45.475 2.59358 47.4763 5.03138 47.5668C7.44035 47.6574 9.62901 45.8291 9.89462 43.4428C10.0336 42.2044 9.9792 40.961 9.92475 39.7175ZM34.188 39.4078H32.4503V39.4098C32.449 39.3623 32.4482 39.3149 32.4473 39.2678C32.4401 38.8577 32.4332 38.4675 32.1414 38.1683C31.7955 37.8141 31.3673 37.7277 30.9143 37.8944C30.4304 38.0736 30.2081 38.4689 30.204 38.9733C30.1998 39.5601 30.2009 40.1474 30.2019 40.7348C30.2029 41.3221 30.204 41.9094 30.1998 42.4962C30.1895 44.1207 29.0118 45.3252 27.4367 45.3334C25.8884 45.3437 24.6736 44.096 24.6716 42.49C24.6707 42.033 24.6712 41.576 24.6717 41.1189C24.6725 40.4333 24.6732 39.7476 24.6695 39.0619C24.6633 38.2959 24.2083 37.7997 23.5391 37.8141C22.8823 37.8265 22.4582 38.3103 22.4582 39.0557L22.457 39.6574V39.658C22.455 40.6623 22.453 41.6678 22.4582 42.6733C22.4726 45.249 24.5666 47.4191 27.167 47.5653C29.7778 47.7115 32.1147 45.7493 32.3864 43.1715C32.4236 42.8257 32.4369 42.4768 32.4506 42.1202V42.1202L32.4506 42.12V42.1198C32.4566 41.9628 32.4627 41.8042 32.4709 41.6438H33.0206C33.4825 41.6438 33.9442 41.6441 34.4058 41.6445L34.4094 41.6445H34.4098H34.4101H34.4105H34.4108H34.4112H34.4115H34.4119H34.4123C35.5679 41.6453 36.7228 41.6461 37.8777 41.6417C38.658 41.6376 39.148 41.2052 39.1521 40.534C39.1583 39.8381 38.6683 39.4078 37.855 39.4078H34.188ZM14.4367 39.4102C14.9425 39.4102 15.4514 39.4098 15.9624 39.4093C16.991 39.4084 18.0281 39.4075 19.0652 39.4102C19.7426 39.4123 20.1853 39.7541 20.2779 40.3203C20.3891 41.0121 19.9588 41.5701 19.2341 41.6298C18.9501 41.6536 18.6628 41.6494 18.3755 41.6453C18.2649 41.6437 18.1544 41.6421 18.044 41.6421C17.5408 41.6421 17.0379 41.6423 16.5351 41.6426C15.5296 41.643 14.5245 41.6435 13.5184 41.6421C12.5569 41.6421 12.1595 41.2406 12.1492 40.2873C12.1398 39.4131 12.1283 38.5389 12.1168 37.665C12.1031 36.6184 12.0893 35.5721 12.0792 34.5264C12.071 33.7193 12.5054 33.2128 13.1869 33.2107C13.8643 33.2087 14.2843 33.7049 14.2967 34.5284C14.3058 35.1321 14.3142 35.736 14.3226 36.3401V36.3402C14.3352 37.2443 14.3478 38.1485 14.3626 39.052C14.3626 39.0718 14.3615 39.0919 14.3603 39.1123C14.3553 39.2023 14.3498 39.2991 14.4388 39.4082L14.4367 39.4102ZM41.334 42.5107C41.3344 42.8227 41.3349 43.1348 41.3349 43.4472C41.3349 43.7637 41.3344 44.0805 41.334 44.3973V44.3976V44.3978V44.398V44.3982V44.3985V44.3987C41.3331 45.0336 41.3321 45.6687 41.3349 46.3029C41.3369 47.0689 41.7858 47.5754 42.4488 47.5712C43.1015 47.5671 43.5483 47.0833 43.5503 46.3441C43.5565 44.4396 43.5565 42.5351 43.5503 40.6305C43.5483 39.8996 43.0891 39.4096 42.4405 39.4116C41.7879 39.4157 41.339 39.9078 41.3349 40.6388C41.3321 41.2628 41.3331 41.8859 41.334 42.5093V42.5095V42.5097V42.51V42.5102V42.5104V42.5107ZM45.7822 43.4414C45.7822 43.1291 45.7815 42.8167 45.7808 42.5044C45.7795 41.8801 45.7781 41.2561 45.7822 40.633C45.7884 39.8918 46.229 39.41 46.8838 39.4079C47.5303 39.4079 47.9935 39.9062 47.9956 40.631C48.0018 42.5355 48.0018 44.44 47.9956 46.3445C47.9956 47.0755 47.5406 47.5634 46.8838 47.5676C46.2331 47.5717 45.7863 47.0858 45.7802 46.3466C45.776 45.7015 45.7774 45.0563 45.7788 44.4112C45.7795 44.0886 45.7802 43.766 45.7802 43.4435L45.7822 43.4414ZM36.0184 43.4483C35.8757 43.4494 35.733 43.4505 35.5903 43.4505V43.4526C35.4672 43.4521 35.3442 43.451 35.2211 43.45C34.8522 43.4469 34.4836 43.4438 34.1161 43.4546C33.5499 43.4732 33.204 43.8232 33.2122 44.3379C33.2225 44.8259 33.5705 45.1842 34.1017 45.1924C35.0674 45.2068 36.0351 45.2068 37.0007 45.1924C37.5587 45.1842 37.9169 44.8156 37.9087 44.305C37.9025 43.817 37.5546 43.4732 37.0172 43.4546C36.6842 43.4431 36.3513 43.4457 36.0184 43.4483ZM16.3474 44.834C16.1936 44.834 16.0399 44.835 15.8863 44.836H15.8863H15.8863H15.8862C15.5486 44.8382 15.2114 44.8404 14.8732 44.8319C14.3564 44.8196 13.9879 44.4531 13.9858 43.9734C13.9837 43.4916 14.3461 43.1086 14.8629 43.1024C15.845 43.088 16.8271 43.0901 17.8093 43.1024C18.3302 43.1086 18.6884 43.4772 18.6926 43.9631C18.6967 44.4737 18.3322 44.8216 17.7722 44.8319C17.4551 44.8374 17.138 44.8356 16.821 44.8338L16.8205 44.8338C16.6621 44.8329 16.5037 44.8319 16.3454 44.8319L16.3474 44.834ZM16.3226 45.3731C15.7441 45.3814 15.3076 45.822 15.3076 46.4047C15.3055 46.9791 15.7503 47.4383 16.3185 47.4486C16.9012 47.4609 17.3954 46.9812 17.3954 46.4088C17.3933 45.822 16.9177 45.3649 16.3226 45.3731ZM46.9022 36.0293C47.4808 36.0355 47.9235 36.4802 47.9235 37.0547C47.9235 37.6476 47.4581 38.1088 46.8672 38.1006C46.3051 38.0903 45.8398 37.625 45.8336 37.067C45.8295 36.4843 46.3031 36.0252 46.9022 36.0314V36.0293ZM27.4659 41.5755C28.028 41.5631 28.4789 41.0998 28.4809 40.5275C28.483 39.9571 28.0362 39.498 27.4659 39.4856C26.8791 39.4712 26.3993 39.9407 26.3932 40.5275C26.389 41.0978 26.8894 41.5858 27.4659 41.5755Z" fill="#262324"/>
</svg>
