<svg width="50" height="50" viewBox="0 0 50 50" fill="none" xmlns="http://www.w3.org/2000/svg">
<g clip-path="url(#clip0_1935_43278)">
<path d="M35.2107 23.986C34.781 23.3669 35.3845 22.3063 36.1726 22.4509C36.0359 22.7194 35.6511 22.6296 35.4715 22.8522C35.3299 23.0261 35.364 23.2966 35.4812 23.4743C35.6238 23.6101 35.8299 23.6442 36.0076 23.7194C35.7986 23.9206 35.5193 24.1911 35.2107 23.986ZM35.7215 22.9958C35.7654 22.8835 35.9021 22.8601 35.99 22.7937C35.99 22.9724 35.99 23.1521 36.0008 23.3298C36.2654 23.3298 36.3543 23.0798 36.447 22.8776C36.7237 22.8474 37.0035 22.8629 37.2752 22.9235C36.9011 23.1188 36.5408 23.3396 36.1492 23.4919C35.9207 23.4743 35.6004 23.2565 35.7215 22.9958Z" fill="white"/>
<path d="M7.31738 0.017397C12.293 -0.0197124 17.2705 0.0125142 22.2471 -0.00115771C24.9375 0.010561 27.6289 -0.0236186 30.3193 0.0154439C30.2744 0.284975 30.2217 0.5506 30.167 0.818178C22.5973 0.83185 15.0283 0.83185 7.45996 0.818178C7.4043 0.55353 7.35547 0.291811 7.31738 0.017397ZM7.53711 1.25177C8.07129 1.21955 8.61133 1.23126 9.14355 1.23224H28.5977C29.0967 1.23224 29.5967 1.2254 30.0957 1.24787C29.7129 3.61212 29.3516 5.96857 28.9814 8.32892C28.1436 8.29767 27.5361 7.49689 27.4551 6.71369C27.6729 6.38458 27.9922 6.11212 28.0986 5.71759C28.2051 5.32306 28.2227 4.91193 28.3203 4.51544C28.4248 4.05451 28.6816 3.64728 28.8086 3.19123C28.6478 3.2447 28.4984 3.32784 28.3682 3.43634C27.9295 3.80713 27.5311 4.22317 27.1797 4.67755C26.6641 4.11798 26.1426 3.55158 25.5195 3.10529C25.4863 3.49591 25.7793 3.81232 25.8828 4.17951C26.1084 4.72638 26.0342 5.3465 26.2734 5.88751C26.4072 6.19415 26.6562 6.42658 26.8193 6.71466C26.7959 7.0618 26.6729 7.39483 26.4651 7.67386C26.2572 7.95289 25.9734 8.16608 25.6475 8.2879C25.0098 8.44318 24.2568 8.3797 23.7812 7.88263C23.4287 7.57306 23.4287 7.02033 23.0254 6.75763C22.8848 7.45685 23.3604 8.09748 23.9199 8.45587C24.8887 9.06525 26.3398 8.73712 26.875 7.70099C27.1523 7.34357 27.0508 6.88849 27.0703 6.4715C27.1612 6.53971 27.2417 6.62061 27.3096 6.71173C27.2793 7.01349 27.1836 7.34357 27.3682 7.61994C27.6611 8.22833 28.2627 8.5965 28.8926 8.76447C28.8652 8.95978 28.8376 9.15705 28.8096 9.35626C23.6338 9.38556 18.4482 9.35626 13.2686 9.36994C11.7842 9.35529 10.3008 9.39826 8.81738 9.34748C8.78613 9.14337 8.75586 8.94123 8.72754 8.73712C9.24805 8.50275 9.76562 8.20197 10.0293 7.68244C10.2451 7.37482 10.1904 6.99005 10.1045 6.64826C10.1924 6.59552 10.2803 6.54279 10.3691 6.49201C10.3564 6.85138 10.2891 7.24201 10.4912 7.56623C10.6565 7.92346 10.9217 8.22518 11.2548 8.43488C11.5879 8.64458 11.9746 8.75329 12.3682 8.74787C13.418 8.81915 14.5166 7.87677 14.4189 6.79474L14.1602 6.8924C13.9854 7.50763 13.5957 8.11603 12.9502 8.30255C12.4326 8.40021 11.835 8.42169 11.3877 8.09162C10.8994 7.76154 10.6289 7.18048 10.5762 6.60236C10.8346 6.42957 11.038 6.1862 11.1621 5.90119C11.3945 5.38165 11.335 4.79083 11.5293 4.26056C11.6514 3.87873 11.8672 3.534 11.9697 3.14533C11.8191 3.19858 11.6792 3.27828 11.5566 3.38068C11.1004 3.79141 10.6674 4.22731 10.2598 4.68634C9.80469 4.12189 9.31152 3.54962 8.66895 3.19318C8.75293 3.65412 9.00195 4.06037 9.11816 4.51056C9.23145 4.93244 9.24219 5.37482 9.36523 5.79279C9.47949 6.15607 9.78516 6.40412 9.98438 6.71662C9.91211 7.44904 9.38574 8.12873 8.66699 8.3338C8.28711 5.9754 7.88574 3.61896 7.53711 1.25568M10.1436 2.04962C10.0527 2.46369 10.1309 2.88751 10.1172 3.30548C9.97656 3.02716 9.94727 2.68048 9.73438 2.44806C9.64941 2.44123 9.47754 2.43048 9.3916 2.4256C9.375 2.90802 9.74121 3.2674 10.0273 3.61212C10.1338 3.55841 10.2422 3.50568 10.3496 3.45392C10.4209 3.0633 10.5557 2.68439 10.5332 2.28693C10.5332 2.07794 10.2861 2.10724 10.1426 2.05158M14.2578 2.27521C14.2676 2.68634 14.375 3.09162 14.3633 3.50568L14.6123 3.51447C14.6006 3.09845 14.6865 2.69025 14.6992 2.27814C14.7041 2.01447 14.2725 2.01837 14.2578 2.27814M18.5127 2.08283C18.3818 2.53986 18.5195 3.00665 18.6104 3.45685C18.7227 3.50275 18.834 3.55451 18.9463 3.59845C19.248 3.27912 19.5947 2.91486 19.583 2.44611L19.207 2.43146C19.0781 2.75275 18.9639 3.08087 18.8369 3.40802C18.8447 2.97833 18.8887 2.5506 18.8799 2.11994C18.7559 2.11212 18.6318 2.1004 18.5088 2.08771M22.7598 2.07013C22.6045 2.54376 22.835 3.02423 22.8271 3.50373C22.9932 3.49787 23.2109 3.6297 23.3359 3.46759C23.593 3.19093 23.7787 2.85572 23.877 2.49103L23.5156 2.39923C23.3115 2.71173 23.2227 3.08283 23.0781 3.41583C23.0527 3.03693 23.1338 2.66486 23.1543 2.28888C23.1328 2.0838 22.9082 2.1131 22.7637 2.06623M26.9219 2.12189C26.8936 2.57697 27.0078 3.01935 27.0908 3.46271L27.4141 3.63947C27.707 3.30451 27.9893 2.94513 28.0977 2.50568L27.7686 2.3758C27.543 2.65412 27.4756 3.01349 27.3203 3.32892C27.2852 2.909 27.3926 2.48712 27.3018 2.07111L26.9219 2.12189ZM10.499 3.56525C10.8994 3.34552 11.1455 2.90216 11.207 2.45783C11.1094 2.44708 10.9287 2.42267 10.835 2.40998C10.6582 2.77326 10.502 3.15412 10.499 3.56525ZM13.5488 2.47931C13.6836 2.91095 13.8887 3.38556 14.3145 3.6004C14.2559 3.17853 14.1572 2.75373 13.9121 2.3963L13.5488 2.47931ZM14.9697 2.54572C14.7939 2.87189 14.7187 3.24005 14.6523 3.60138C15.0713 3.36603 15.3291 2.90705 15.4209 2.44708C15.2754 2.46271 15.04 2.35626 14.9697 2.54474M17.7725 2.46076C17.8506 2.89533 18.0811 3.33966 18.4727 3.56134C18.4932 3.14826 18.3213 2.76935 18.1396 2.409L17.7725 2.46076ZM22.0098 2.44123C22.1074 2.86603 22.3027 3.42853 22.7686 3.54279C22.7137 3.19974 22.6101 2.86629 22.4609 2.55255C22.3916 2.36896 22.1514 2.46759 22.0068 2.4422M26.2236 2.45685C26.3037 2.8963 26.541 3.33576 26.9395 3.56525C26.9395 3.15412 26.7939 2.7674 26.6045 2.409C26.5068 2.42169 26.3184 2.44611 26.2236 2.45685ZM8.96777 2.63556C8.89941 2.74982 8.83105 2.86505 8.76074 2.98029C9.07332 3.34788 9.45148 3.65419 9.87598 3.88361C9.68066 3.40607 9.40723 2.92951 8.96777 2.63556ZM11.4092 2.70783C11.1504 3.07794 10.8467 3.43439 10.7314 3.8797C11.0957 3.63654 11.4678 3.38165 11.7451 3.03888C11.752 2.92462 11.7539 2.81037 11.752 2.69611L11.4092 2.70587M13 2.6922C12.9985 2.87834 13.0424 3.06204 13.1279 3.22736H12.8193C12.9893 3.66095 13.21 4.07501 13.3271 4.52912C13.4131 4.92951 13.4248 5.34259 13.5498 5.73419C13.6475 6.10724 13.9268 6.38849 14.1709 6.67365C14.368 6.62827 14.5726 6.62627 14.7705 6.66779C14.9775 6.47248 15.1924 6.2713 15.3174 6.00861C15.5439 5.55158 15.5312 5.03205 15.6475 4.54376C15.7559 4.07599 16.0059 3.65998 16.1357 3.20099C15.4434 3.49982 15.0029 4.1629 14.4824 4.68341C14.0752 4.17658 13.5391 3.78888 13.1553 3.26349C13.4284 3.44119 13.6894 3.63694 13.9365 3.84943C13.9365 3.78986 13.9414 3.67169 13.9424 3.6131C13.7754 3.29151 13.5658 2.99391 13.3193 2.72833C13.21 2.71369 13.1006 2.70392 12.9912 2.69806M15.6182 2.7088C15.3486 3.04865 15.083 3.39826 14.9248 3.80646C15.3067 3.65529 15.6431 3.40805 15.9014 3.08869C16.0176 2.97833 15.9082 2.82208 15.8916 2.69806L15.6221 2.71173M17.2324 2.69806C17.2207 2.7674 17.1953 2.90509 17.1826 2.97345L17.4004 3.28205L16.9854 3.19415C17.1914 3.70001 17.4541 4.1883 17.5654 4.72736C17.6406 5.09357 17.6133 5.48224 17.7734 5.82697C17.915 6.18634 18.2109 6.45685 18.3486 6.81623C18.3035 7.14511 18.171 7.45588 17.9649 7.7161C17.7587 7.97633 17.4866 8.17649 17.1768 8.29572C16.6123 8.42267 15.9502 8.41388 15.4873 8.01837C15.0508 7.70099 14.9307 7.15216 14.6699 6.70783C14.5869 6.89435 14.4971 7.09845 14.5723 7.30353C14.6807 7.63528 14.8691 7.93528 15.1208 8.17709C15.3725 8.41891 15.6798 8.59514 16.0156 8.69025C16.6162 8.81525 17.2852 8.76154 17.79 8.38556C18.2373 8.12091 18.4316 7.61994 18.7002 7.20099C18.9355 7.65314 19.1699 8.1463 19.6279 8.41388C20.1211 8.76154 20.7539 8.80451 21.333 8.70685C21.6694 8.62353 21.9802 8.45871 22.2379 8.22692C22.4955 7.99513 22.6922 7.7035 22.8105 7.37775C22.8838 7.09845 22.8281 6.80841 22.8223 6.52521C22.9805 6.58185 23.1816 6.76642 23.3154 6.56623C23.8379 6.15119 23.9609 5.46759 24.0342 4.84552C24.0918 4.25958 24.3916 3.74689 24.5977 3.2088L24.2734 3.24591C24.3262 3.1258 24.3818 3.00568 24.4365 2.88654C24.4092 2.84064 24.3545 2.74884 24.3262 2.70392L24.0918 2.6883C23.8105 3.02033 23.541 3.37189 23.4082 3.79376C23.709 3.65216 23.9648 3.43927 24.2422 3.26056C24.168 3.46759 23.9922 3.60626 23.8359 3.74884C23.5198 4.03708 23.2236 4.34638 22.9492 4.67462C22.5879 4.25373 22.1562 3.89923 21.8223 3.4549C22.0537 3.59162 22.2744 3.74787 22.5059 3.88165C22.3779 3.43244 22.0635 3.08087 21.8027 2.70978L21.4492 2.70001C21.4636 2.90859 21.5197 3.11215 21.6143 3.29865C21.4834 3.23419 21.3525 3.17072 21.2236 3.10919C21.3662 3.55158 21.6143 3.95392 21.7354 4.40314C21.8984 4.91193 21.8516 5.47736 22.0918 5.96564C22.2236 6.25861 22.4883 6.45978 22.6201 6.74689C22.5391 7.50763 21.9473 8.26837 21.1504 8.34552C20.708 8.38654 20.2227 8.37677 19.8438 8.11408C19.3721 7.83966 19.1191 7.31427 18.9961 6.80158C18.96 6.59748 19.1807 6.48908 19.2832 6.3465C19.6572 5.96662 19.7168 5.40802 19.793 4.90607C19.8496 4.30353 20.1465 3.76447 20.3701 3.21369L20.043 3.24982C20.1045 3.12287 20.166 2.99689 20.2266 2.87091C20.1182 2.8133 20.0156 2.6629 19.8779 2.71955C19.5146 3.02228 19.2783 3.44611 19.1123 3.88165C19.4053 3.69318 19.6875 3.48029 19.9688 3.26935L19.9766 3.42951C19.4903 3.77791 19.0633 4.20228 18.7119 4.68634C18.3076 4.19806 17.8184 3.79865 17.415 3.31915C17.7129 3.49396 17.9775 3.70978 18.2666 3.90509C18.1416 3.45294 17.8203 3.10333 17.5645 2.72443L17.2441 2.7049M25.6924 2.7049C25.6865 2.82071 25.6865 2.93674 25.6924 3.05255C25.9911 3.38347 26.3366 3.66902 26.7178 3.90021C26.6123 3.4422 26.2686 3.10529 26.0283 2.71955C25.9141 2.71955 25.8008 2.71076 25.6895 2.7049M27.5674 3.8758C27.9787 3.63653 28.3504 3.33474 28.6689 2.98126C28.5996 2.86603 28.5312 2.74982 28.4639 2.63458C28.0244 2.92755 27.7715 3.40607 27.5674 3.8758ZM9.87109 3.86896C9.97434 4.08611 10.1309 4.27358 10.3262 4.41388C10.4498 4.28417 10.5568 4.13949 10.6445 3.98322C10.6123 3.8537 10.5402 3.73757 10.4385 3.65119C10.2168 3.59064 10.0479 3.76642 9.86914 3.86896M14.2715 3.61212C14.2383 3.76154 14.125 3.90509 14.1621 4.06427C14.2611 4.19806 14.3695 4.32468 14.4863 4.44318C14.6055 4.26544 14.8359 4.1131 14.833 3.88263C14.7471 3.63654 14.4873 3.63556 14.2715 3.61212ZM18.2754 3.96857L18.6436 4.39826C18.8008 4.2674 18.9502 4.12677 19.0938 3.98224C18.959 3.84455 18.8691 3.5633 18.6289 3.64435C18.4551 3.65607 18.3906 3.8631 18.2754 3.96857ZM22.7002 3.72248C22.4395 3.94806 22.7334 4.22345 22.875 4.41583C23.0312 4.27586 23.1823 4.13165 23.3281 3.98322C23.2119 3.75665 22.9375 3.48029 22.7002 3.72248ZM26.8828 3.77033C26.668 4.00958 26.9727 4.2254 27.1094 4.40509C27.2617 4.26447 27.4102 4.11701 27.5557 3.96759C27.417 3.74884 27.0918 3.45587 26.8828 3.77228M8.96387 9.82697C9.15918 9.81232 9.34961 9.79865 9.54395 9.79572C15.1566 9.79572 20.7686 9.79572 26.3799 9.79572C27.1465 9.81232 27.917 9.75665 28.6807 9.8338C28.6904 9.90607 28.707 10.0486 28.7148 10.1209C22.1211 10.1287 15.5267 10.1287 8.93164 10.1209C8.93945 10.0467 8.95605 9.90021 8.96387 9.82794M8.97559 10.3758C15.54 10.3758 22.1035 10.3758 28.666 10.3758C27.874 15.286 27.1221 20.202 26.3457 25.1131C25.9629 26.9569 25.7998 28.9266 26.4209 30.7381C26.7969 31.9051 27.6777 32.9266 28.832 33.3748C29.7197 33.7137 30.5576 34.2283 31.1621 34.9715C31.4893 35.3826 31.748 35.8934 31.6963 36.4363C31.6865 36.9432 31.2812 37.3807 30.8096 37.5174C30.3213 37.6043 29.7998 37.6151 29.3447 37.407C28.1953 36.9861 26.8428 36.7567 25.7158 37.369C24.9863 37.7225 24.4844 38.5262 24.6074 39.3455C24.7969 40.6102 25.9316 41.6453 27.1846 41.8035C32.6836 41.8084 38.1836 41.7977 43.6816 41.8084C43.6816 42.1356 43.6816 42.4617 43.6816 42.785C41.8477 42.8406 40.0107 42.7928 38.1748 42.8084C27.5127 42.8026 16.8506 42.8221 6.1875 42.7996C6.1748 42.4666 6.17676 42.1336 6.19727 41.8016C10.8099 41.8016 15.4212 41.8016 20.0312 41.8016C20.5586 41.7947 21.0908 41.8397 21.6123 41.7381C21.5176 41.6802 21.4145 41.6374 21.3066 41.6111C18.9697 41.3182 16.8145 40.0203 15.3496 38.1981C13.708 36.1922 12.8262 33.6815 12.334 31.1668C11.1953 24.2332 10.1211 17.2996 8.98047 10.3748M17.626 16.0682C17.6201 16.9686 17.585 17.8699 17.6074 18.7703C18.0344 18.6832 18.4662 18.6209 18.9004 18.5838C19.1787 17.8416 19.4209 17.0867 19.7041 16.3465C19.8018 16.1248 19.8477 15.8367 19.6494 15.6541C19.3174 15.3553 18.8311 15.411 18.416 15.4139C18.0449 15.4061 17.5898 15.6385 17.626 16.0682ZM15.3184 16.494C15.1396 16.7156 15.207 17.0145 15.332 17.244C15.666 17.9119 15.9844 18.5897 16.3145 19.2596C16.6953 19.1268 17.0488 18.9344 17.4131 18.7713C17.375 17.8836 17.4131 16.994 17.3496 16.1092C17.293 15.7186 16.8184 15.8035 16.5352 15.8397C16.0879 15.95 15.6172 16.1326 15.3184 16.4979M20.3496 15.8748C20.0996 15.9891 20.0332 16.2703 19.9424 16.5027C19.7051 17.201 19.4043 17.8768 19.1914 18.5848C19.5723 18.6736 19.9541 18.7664 20.3398 18.8387C20.7959 18.368 21.1484 17.8123 21.5752 17.3162C21.7803 17.0701 22.0361 16.7742 21.8994 16.4305C21.6348 15.8895 20.8975 15.6219 20.3496 15.8748ZM21.9951 17.2322C21.5068 17.7606 21.0898 18.3592 20.6279 18.9158C20.8814 19.1592 21.1198 19.4178 21.3418 19.6902C21.9121 19.3973 22.4814 19.0975 23.042 18.783C23.3535 18.6092 23.6523 18.2811 23.6025 17.9041C23.4861 17.5116 23.2287 17.176 22.8799 16.9617C22.5605 16.8367 22.208 16.9871 21.9932 17.2361M13.9854 17.494C13.6182 17.8113 13.5146 18.3045 13.4922 18.7635C14.085 19.326 14.7422 19.8172 15.3271 20.3885C15.5918 20.0955 15.8438 19.786 16.1084 19.4901C15.8398 18.6873 15.3945 17.9617 15.0498 17.1922C14.6816 17.2117 14.2891 17.2635 13.9863 17.491M12.3047 20.2576C12.5654 20.5281 12.9404 20.6483 13.2686 20.8133C13.8047 21.0408 14.293 21.3817 14.8623 21.5252C14.9912 21.2244 15.1094 20.9188 15.2207 20.6111C14.7646 20.1805 14.2686 19.7977 13.8047 19.3768C13.5811 19.2029 13.3711 18.9627 13.0752 18.9285C12.4092 18.8309 12.001 19.741 12.3047 20.2576ZM17.3047 19.2899C16.9141 19.4735 16.9609 19.9803 17.1045 20.3123C17.333 20.87 17.7278 21.3437 18.2354 21.6688C18.5469 21.6336 18.8213 21.4676 19.1143 21.3651C19.084 20.8348 18.8369 20.3406 18.8545 19.8026C18.8581 19.543 18.8431 19.2836 18.8096 19.0262C18.2998 19.0418 17.7734 19.0828 17.3018 19.2869M19.1885 19.158C19.1377 19.8865 19.0459 20.7293 19.5303 21.3406C19.8672 21.4022 20.2139 21.3592 20.5508 21.3504C20.5829 20.8395 20.7309 20.3426 20.9834 19.8973C20.5986 19.3113 19.8584 19.0955 19.1885 19.158ZM15.4346 20.952C15.3125 21.3123 15.665 21.6082 15.9229 21.8016C16.4238 22.1277 16.9844 22.4695 17.6016 22.4617C17.7625 22.2848 17.911 22.0968 18.0459 21.8992C17.7344 21.5701 17.376 21.2811 17.124 20.9012C16.8945 20.5565 16.707 20.1863 16.498 19.827C15.96 19.9637 15.6357 20.4656 15.4355 20.949M12.1152 20.8514C11.8105 21.0389 11.7354 21.4168 11.6973 21.7459C11.6689 21.9695 11.6885 22.2508 11.9043 22.3797C12.5078 22.619 13.1738 22.5945 13.7979 22.7371C14.1084 22.8074 14.4248 22.8524 14.7393 22.9012C14.7471 22.5486 14.7686 22.1961 14.7793 21.8445C14.1562 21.5408 13.5166 21.2703 12.8799 20.9969C12.6377 20.907 12.3789 20.7713 12.1152 20.8514ZM15.2686 21.5985C15.0732 22.1434 15.1045 22.7371 15.2285 23.2918C15.2979 23.5516 15.4062 23.8328 15.6504 23.9754C16.3066 24.0486 16.9551 23.8699 17.6035 23.8455C17.5889 23.4695 17.585 23.0926 17.5938 22.7166C16.7402 22.5418 15.8682 22.2645 15.2637 21.5994M18.4941 22.1004C18.042 22.4481 17.8945 23.077 18.0244 23.6199C18.1016 23.9871 18.3584 24.2781 18.6104 24.5447C19.0684 25.033 19.4834 25.5565 19.9414 26.0408C21.6426 27.8152 23.3184 29.7088 24.2588 32.0125C24.9307 33.7332 25.0996 35.6102 25.0723 37.4432C25.4082 37.2156 25.7461 36.9715 26.1465 36.8787C26.6982 36.7039 27.2881 36.7488 27.8545 36.8211C27.4766 35.9598 27.3213 35.0262 27.0596 34.1278C26.4834 32.2596 25.8164 30.4031 24.8457 28.7C23.6816 26.8621 22.209 25.2303 21.1504 23.3289C20.8574 22.8201 20.6992 22.2547 20.5645 21.6844C19.8545 21.6063 19.084 21.6688 18.4893 22.1043M12.207 23.074C11.9062 23.367 11.9229 23.8328 11.9883 24.2137C12.0859 24.5369 12.4844 24.5184 12.7578 24.5213C13.6035 24.4861 14.4492 24.491 15.2969 24.4901C15.0967 24.0584 14.8623 23.6385 14.7344 23.1756C14.1475 23.0803 13.5557 23.0177 12.9619 22.9881C12.7109 22.9803 12.4365 22.9432 12.208 23.074M15.9951 24.2537C15.6289 24.702 16.1855 25.4354 16.7188 25.2967C17.2852 25.2401 17.8281 25.0516 18.3916 24.9705C18.1484 24.6688 17.9248 24.3514 17.6582 24.0721C17.0967 24.0154 16.5537 24.2361 15.998 24.2537M13.7695 24.824C13.3662 24.8602 12.9395 24.8445 12.5713 25.0389C12.3916 25.0936 12.4102 25.2967 12.4375 25.4422C12.5273 25.7581 12.7321 26.0288 13.0117 26.201C14.0303 26.1248 15.0234 25.8426 16.002 25.5526C15.7699 25.2614 15.5556 24.9565 15.3604 24.6395C14.8232 24.6278 14.3027 24.7879 13.7695 24.824ZM16.9434 25.5076C16.7861 25.5584 16.5664 25.6473 16.6035 25.8524C16.6201 26.3045 17.0918 26.7527 17.5576 26.5975C18.1641 26.4373 18.7803 26.3104 19.3623 26.0731C19.1369 25.763 18.8899 25.4693 18.623 25.1942C18.0557 25.2586 17.5029 25.3973 16.9434 25.5076ZM14.1426 26.3377C13.8809 26.4256 13.542 26.4276 13.3799 26.6873C13.3232 27.0194 13.5313 27.3602 13.8125 27.5262C14.0547 27.7078 14.3477 27.5262 14.6025 27.4725C15.3271 27.2342 16.0674 27.0438 16.7969 26.8231C16.4772 26.5857 16.2439 26.2503 16.1328 25.868C15.457 25.9656 14.8115 26.201 14.1426 26.3377ZM18.1465 26.6893C17.9443 26.7576 17.6318 26.827 17.6406 27.0975C17.585 27.4285 17.8623 27.7244 18.1514 27.8367C18.4443 27.8455 18.7158 27.7049 18.9971 27.6414C19.4854 27.492 19.9902 27.4236 20.4512 27.2029C20.1719 26.9276 19.9629 26.5555 19.6123 26.368C19.1104 26.3943 18.6309 26.5633 18.1475 26.6893M15.2344 27.5867C14.958 27.6717 14.627 27.6795 14.4316 27.9236C14.2686 28.3602 14.6904 28.9168 15.1572 28.7791C16.0264 28.5399 16.8965 28.2957 17.7529 28.0086C17.3896 27.8133 17.2275 27.4402 17.167 27.0535C16.5137 27.199 15.8789 27.407 15.2354 27.5867M18.792 27.9442C18.4756 28.1776 18.6162 28.7 18.9111 28.8885C19.1963 29.0018 19.5107 28.9158 19.7959 28.8455C20.3245 28.6808 20.8548 28.5213 21.3867 28.367C21.1696 28.0281 20.9067 27.7208 20.6055 27.4539C20.0029 27.6287 19.3936 27.7742 18.792 27.9422M15.7109 28.8856C15.2988 28.95 15.3252 29.4822 15.5332 29.7391C15.7227 30.0213 16.1084 29.95 16.3867 29.8748C17.1445 29.6561 17.8994 29.4276 18.6572 29.2078C18.4039 28.9303 18.2093 28.6044 18.085 28.2498C17.2764 28.3856 16.501 28.6697 15.7109 28.8856ZM19.6172 29.1785C19.4404 29.4871 19.5518 29.9793 19.9102 30.1092C20.1592 30.2068 20.4248 30.0926 20.6689 30.0281C21.2119 29.8436 21.7773 29.7264 22.3066 29.5008C22.0708 29.186 21.8147 28.8868 21.54 28.6053C20.8883 28.744 20.2491 28.936 19.6289 29.1795M16.3594 30.1473C16.3535 30.407 16.2617 30.7205 16.457 30.9344C16.6523 31.1971 17.0156 31.117 17.2881 31.0613C18.0625 30.8465 18.8252 30.5867 19.6055 30.3914C19.3076 30.1209 19.1123 29.7694 18.9346 29.4149C18.0654 29.6258 17.2129 29.8973 16.3555 30.1473M20.4512 30.326C20.3535 30.6561 20.3623 31.0545 20.6748 31.2693C20.9863 31.3846 21.3232 31.2977 21.6221 31.1824C22.1055 30.9979 22.625 30.9207 23.0869 30.6942C22.9131 30.3542 22.714 30.0277 22.4912 29.7176C21.8076 29.9129 21.1348 30.1463 20.4463 30.3279M17.2373 31.3397C17.0635 31.6756 17.1768 32.1326 17.5303 32.2967C17.8691 32.3758 18.1982 32.2069 18.5205 32.1229C19.1338 31.9178 19.7734 31.7947 20.3711 31.5447C20.234 31.4099 20.1275 31.2472 20.0589 31.0675C19.9903 30.8879 19.9612 30.6956 19.9736 30.5037C19.0674 30.8035 18.1289 31.0057 17.2393 31.3397M21.2891 31.5418C20.8984 31.7459 21.0996 32.2772 21.3809 32.4842C21.6895 32.6277 22.0342 32.5154 22.3359 32.408C22.751 32.2576 23.1826 32.159 23.6055 32.0223L23.6953 31.8885C23.6094 31.5399 23.4082 31.2361 23.2422 30.9217C22.5986 31.1483 21.9316 31.3016 21.2891 31.5418ZM18.3506 32.4207C18.1875 32.4852 17.9727 32.5086 17.8926 32.6893C17.7578 32.9676 17.9395 33.2938 18.168 33.4647C18.3818 33.5965 18.6445 33.5174 18.8701 33.4647C19.6191 33.2361 20.373 33.0213 21.127 32.8074C20.8564 32.5037 20.6523 32.1395 20.6777 31.7195C19.9141 31.993 19.1279 32.1942 18.3506 32.4236M22.1592 32.7098C21.9551 32.7645 21.6631 32.8475 21.6855 33.1151C21.6104 33.5574 22.0986 34.0145 22.5283 33.8172C23.0713 33.6395 23.6143 33.4656 24.1602 33.2918C24.1086 32.9224 24.0033 32.5624 23.8477 32.2235C23.2715 32.3406 22.7256 32.5604 22.1592 32.7117M18.75 33.7381C18.3037 33.8494 18.4102 34.532 18.7432 34.7205C19.0176 34.8494 19.3291 34.7557 19.6025 34.6893C20.3311 34.4637 21.0674 34.2557 21.7949 34.0408C21.6406 33.9061 21.4648 33.7869 21.3525 33.6121C21.2715 33.4305 21.2686 33.2215 21.2334 33.032C20.3965 33.2352 19.583 33.5203 18.75 33.7381ZM22.2148 34.1844C21.9307 34.5574 22.2568 35.2586 22.7549 35.1561C23.3408 35.0848 23.8877 34.8055 24.4678 34.6795C24.415 34.2977 24.3291 33.9217 24.251 33.5447C23.5791 33.7791 22.8789 33.9285 22.2148 34.1844ZM19.3477 35.0291C19.1807 35.1024 18.9287 35.116 18.8994 35.3406C18.8174 35.6785 19.0381 36.159 19.4307 36.1483C19.7773 36.1395 20.1016 35.9988 20.4336 35.9119C20.9893 35.7293 21.5664 35.6111 22.1045 35.3777C21.9686 35.2408 21.8611 35.0783 21.7882 34.8996C21.7153 34.721 21.6784 34.5297 21.6797 34.3367C20.9082 34.5877 20.1279 34.8074 19.3477 35.0291ZM22.835 35.4129C22.6797 35.4813 22.4502 35.532 22.4648 35.7459C22.3574 36.1756 22.7939 36.6541 23.2354 36.5067C23.707 36.3777 24.1631 36.1951 24.6318 36.0535C24.5938 35.6736 24.5342 35.2957 24.4707 34.9217C23.9336 35.1121 23.3799 35.2488 22.835 35.41M19.7422 36.3543C19.5469 36.4266 19.2109 36.4676 19.2275 36.7449C19.167 37.0682 19.3965 37.3699 19.6738 37.5086C19.9131 37.5428 20.1416 37.4373 20.3672 37.3729C21.085 37.1385 21.8193 36.9647 22.5342 36.7225C22.371 36.6094 22.2377 36.4583 22.146 36.2822C22.0543 36.1061 22.0069 35.9103 22.0078 35.7117C21.2412 35.8826 20.5068 36.1736 19.7422 36.3563M22.8779 36.8602C22.2822 37.0555 22.6973 38.0535 23.2568 37.9442C23.7266 37.8387 24.168 37.6277 24.6328 37.5008C24.6455 37.1102 24.6484 36.7195 24.6406 36.3289C24.0547 36.5018 23.4551 36.6541 22.8779 36.8611M20.4805 37.5965C20.0967 37.7068 19.6992 37.7801 19.3506 37.9871C19.3779 38.2225 19.3184 38.5008 19.4971 38.6903C19.6455 38.8377 19.8555 38.9832 20.0742 38.8992C20.9619 38.6453 21.8467 38.3826 22.7314 38.118C22.585 38.0203 22.415 37.9363 22.3037 37.7938C22.1934 37.5926 22.1855 37.3553 22.1367 37.1365C21.5742 37.2557 21.0332 37.451 20.4766 37.6004M22.9033 38.3065C22.4375 38.5076 22.708 39.1912 23.0889 39.3328C23.415 39.4129 23.7344 39.2547 24.0361 39.1531C24.168 39.0955 24.3496 39.0486 24.3789 38.8826C24.4648 38.5135 24.5234 38.1375 24.6533 37.7801C24.0811 37.9891 23.4697 38.0838 22.9033 38.3065ZM19.7021 39.2596C19.1582 39.4822 19.5264 40.3338 20.0283 40.3279C20.209 40.3107 20.3867 40.2697 20.5566 40.2059C21.2822 39.9637 22.0391 39.8152 22.748 39.5223C22.3887 39.327 22.2412 38.9461 22.2227 38.5526C21.374 38.7576 20.5469 39.0408 19.7021 39.2596ZM31.3682 21.076C32.2314 20.5067 33.3057 20.3621 34.3154 20.4774C34.6912 20.5278 35.0495 20.6674 35.3604 20.8846C35.0674 21.0496 34.8672 21.3231 34.6855 21.6014C34.3057 21.6727 34.2588 21.1053 33.917 21.0379C33.4648 20.9637 33.0137 21.1219 32.6094 21.3104C32.3105 21.4617 31.9912 21.741 32.0449 22.1111C32.0854 22.3597 32.1822 22.5957 32.3279 22.801C32.4736 23.0063 32.6645 23.1755 32.8857 23.2957C33.0078 23.3524 33.1992 23.5076 33.0156 23.6199C32.5273 24.0711 32.0752 24.7039 32.2754 25.4041C32.3623 25.7283 32.7539 25.6736 33.0117 25.7332C32.999 25.8143 32.9883 25.8963 32.9775 25.9793C32.7588 26.0917 32.5466 26.2163 32.3418 26.3524C32.4395 26.7703 32.7979 27.0115 33.1416 27.2225C32.916 27.2459 32.6904 27.2654 32.4648 27.285C32.4912 27.5125 32.4863 27.7733 32.6602 27.9442C32.8633 28.2147 33.2119 28.2762 33.5254 28.326C33.3623 28.4539 33.084 28.5272 33.0908 28.7772C33.2998 29.2547 33.9053 29.1082 34.3232 29.1483C34.2256 29.3035 34.1211 29.4598 34.0254 29.619C34.4063 29.7283 34.8066 29.7488 35.1973 29.8045C35.4697 32.0506 35.6104 34.3055 35.8701 36.5496C35.9199 37.2205 35.9502 37.8963 36.0977 38.5555C35.4853 38.3151 34.8412 38.1654 34.1855 38.1111C33.5098 37.9588 32.8184 37.95 32.1279 37.9246C32.3467 37.2068 32.4805 36.4305 32.2539 35.6961C32.018 34.9417 31.5098 34.3022 30.8281 33.9022C29.7002 33.1942 28.2646 32.9735 27.3408 31.949C26.7275 31.3299 26.5439 30.4295 26.5293 29.5877C26.583 27.6346 27.3105 25.7567 28.3848 24.1453C29.1875 22.9598 30.1582 21.8572 31.3652 21.0721M35.5723 21.2361C35.8369 21.0848 36.1758 21.1854 36.3799 21.3944C36.9092 21.9012 37.7129 22.1492 37.9971 22.8797C37.5557 22.5819 37.1094 22.2938 36.6504 22.0262C36.4846 21.9004 36.29 21.8181 36.0843 21.7867C35.8787 21.7554 35.6684 21.7759 35.4727 21.8465C34.9463 22.157 34.7109 22.7654 34.2578 23.1551C33.9648 23.3162 33.582 23.2928 33.2725 23.1844C33.0475 23.0597 32.8553 22.8835 32.7114 22.6704C32.5674 22.4572 32.4759 22.2131 32.4443 21.9578C32.6953 21.6258 33.0928 21.3514 33.5283 21.4129C33.9619 21.4031 34.2119 21.8133 34.4629 22.0965C34.8984 21.9012 35.1807 21.494 35.5723 21.2322M34.7656 23.6317C34.7773 22.9529 35.2871 22.1111 36.0557 22.1971C36.2949 22.1785 36.4062 22.4158 36.5352 22.5721C37.0176 22.5848 37.5459 22.6951 37.7969 23.158C37.3896 23.2029 36.9492 23.2205 36.6104 23.4793C36.2412 23.7147 36.041 24.1336 35.6768 24.3709C35.2275 24.533 34.6875 24.1199 34.7656 23.6317ZM35.2119 23.9832C35.5166 24.1883 35.7979 23.9178 36.0088 23.7166C35.8311 23.6414 35.625 23.6072 35.4824 23.4715C35.3652 23.2938 35.3311 23.0233 35.4727 22.8494C35.6523 22.6268 36.0371 22.7166 36.1738 22.4481C35.3857 22.3035 34.7822 23.3641 35.2119 23.9832ZM35.7227 22.993C35.6016 23.2537 35.918 23.4715 36.1504 23.4891C36.541 23.3367 36.9023 23.1121 37.2764 22.9207C37.0047 22.8601 36.7249 22.8446 36.4482 22.8748C36.3506 23.077 36.2666 23.324 36.002 23.327C35.9951 23.1492 35.9941 22.9695 35.9912 22.7908C35.9033 22.8572 35.7666 22.8807 35.7227 22.993ZM32.8438 24.3397C33.1846 23.8445 33.75 23.5584 34.3164 23.4041C34.043 24.8143 34.2676 26.3485 35.0615 27.5604C35.3613 28.034 35.8096 28.3826 36.2041 28.7733C36.069 28.9602 35.8949 29.1156 35.694 29.2289C35.493 29.3422 35.2699 29.4106 35.04 29.4295C35.002 29.3992 34.9238 29.3367 34.8838 29.3065C34.9609 29.0692 35.0654 28.8426 35.1572 28.6102C34.7188 28.6815 34.2852 28.7938 33.8398 28.8055C34.0605 28.4578 34.4023 28.1434 34.373 27.6961C33.9932 27.8436 33.5762 27.9207 33.1758 27.8006C33.4746 27.5027 33.917 27.2654 33.9648 26.8026C33.6103 26.7645 33.2568 26.7166 32.9082 26.6434C33.2158 26.2401 33.6377 25.8524 33.6172 25.3006C33.2951 25.3261 32.9711 25.3044 32.6553 25.2361C32.6729 24.9315 32.6553 24.5965 32.8438 24.3367M37.001 23.5721C37.3408 23.4002 37.7344 23.451 38.1016 23.4744C37.6963 23.6004 37.2168 23.5389 36.8848 23.8465C36.4121 24.2488 36.5811 24.993 36.1484 25.4315C35.9102 25.7244 35.502 25.702 35.166 25.6443C35.1797 25.4168 35.0967 25.1404 35.2754 24.9608C35.5322 24.6756 35.875 24.491 36.1631 24.2401C36.4404 24.0174 36.6777 23.7352 37.001 23.576M37.625 23.7654C38.3252 23.4861 38.9922 23.994 39.6865 24.0584C39.6607 24.3769 39.5904 24.6901 39.4775 24.9891C39.1416 24.7664 39.0146 24.3543 38.7012 24.1102C38.3877 23.866 37.9893 23.8572 37.627 23.7703M37.3701 24.4461C37.7217 24.1629 38.3184 24.1258 38.627 24.493C38.8721 24.7537 38.9609 25.1102 39.0342 25.451C38.5918 25.5486 38.1553 25.6697 37.7217 25.8045C37.2236 25.9559 36.6973 25.9139 36.1855 25.9461C36.6465 25.4979 36.8486 24.8397 37.3701 24.4461ZM37.834 26.1287C38.3154 26.0662 38.7295 25.7986 39.1865 25.6512C39.022 26.1252 38.7572 26.5583 38.4102 26.9207C38.2305 26.7352 38.082 26.4432 37.7822 26.4744C37.1758 26.45 36.4922 26.4041 35.9668 26.7674C35.5693 27.0877 35.7764 27.7576 36.2461 27.8748C36.6173 27.9554 37.0017 27.9534 37.3721 27.869C37.7002 27.6649 37.9199 27.3221 38.2646 27.1346C38.084 27.5252 37.7627 27.8563 37.6699 28.2918C37.5986 28.5067 37.5947 28.7615 37.4287 28.9324C37.21 29.202 36.8037 29.1561 36.5127 29.0477C36.3711 28.8475 36.3564 28.5926 36.252 28.3768C35.9834 28.1453 35.6416 27.9783 35.4707 27.6492C35.2529 27.2879 35.3086 26.7342 35.7051 26.5184C36.3516 26.1444 37.127 26.2918 37.8301 26.1277M36.2158 26.952C36.6553 26.699 37.1924 26.7352 37.668 26.8602C37.8691 26.8885 37.7471 27.1453 37.7656 27.2733C37.2773 27.035 36.752 26.9803 36.2197 26.952M26.6973 37.9559C27.584 37.494 28.6318 37.7322 29.5381 38.0125C30.0723 38.2078 30.6514 38.1375 31.2061 38.2235C32.0117 38.3836 32.8408 38.3367 33.6475 38.5027C34.4416 38.526 35.2283 38.6631 35.9834 38.91C36.5566 39.1258 37.1719 39.1551 37.7793 39.1346C38.2578 39.1512 38.6084 38.7283 39.0811 38.7068C39.3877 38.6619 39.6396 38.9197 39.9443 38.8914C40.1396 38.8973 40.3809 38.8397 40.5352 39.0037C40.6992 39.2244 40.7861 39.492 40.9463 39.7166C41.2188 39.9207 41.6133 39.9559 41.8105 40.2596C42.0403 40.6002 42.2242 40.9696 42.3574 41.3582L42.0078 41.3777C41.5342 40.8416 41.0479 40.3162 40.6035 39.7547C40.4794 39.6009 40.3389 39.4611 40.1846 39.3377C40.216 39.5861 40.2817 39.829 40.3799 40.0594C40.1025 39.8026 39.8525 39.5203 39.5781 39.2625C39.4443 39.1024 39.2178 39.1649 39.0361 39.1385C38.9775 39.6375 39.543 39.8953 39.5244 40.3807C39.0293 40.3553 38.6523 40.0018 38.1982 39.8484C37.6353 39.6731 37.0474 39.5916 36.458 39.6072C36.0322 39.6219 35.6709 39.366 35.2734 39.2586C34.4268 39.0437 33.5595 38.9206 32.6865 38.8914C31.7324 38.7401 30.7637 38.825 29.8018 38.7752C29.1182 38.7567 28.4834 38.4276 27.7998 38.4129C27.4287 38.4676 27.0234 38.5447 26.7451 38.8182C26.3633 39.241 26.4629 39.9217 26.8174 40.3289C27.1465 40.702 27.6533 40.8445 28.126 40.9276C29.0869 41.0184 30.0518 40.9227 31.0146 40.9451C31.9775 40.9676 32.958 40.7889 33.9355 40.8104C34.6279 40.7742 35.3203 40.8104 36.0137 40.8358C35.9854 40.782 35.9297 40.6746 35.9014 40.6219C35.3789 40.3914 34.7988 40.3631 34.2412 40.3465C32.665 40.3152 31.0882 40.3097 29.5107 40.3299C28.9766 40.3358 28.3291 40.4764 27.918 40.0369C27.6816 39.8416 27.6191 39.4305 27.8564 39.2156C28.5127 38.9979 29.2148 39.1697 29.8838 39.2361C30.8955 39.4442 31.9404 39.3084 32.9541 39.5067C33.8345 39.5986 34.7078 39.7486 35.5684 39.9559C36.6982 40.2 37.9893 40.0281 38.9443 40.8016C39.0761 40.9315 39.2346 41.0311 39.4089 41.0934C39.5831 41.1556 39.7689 41.179 39.9531 41.1619C39.9629 40.8924 39.9814 40.6258 40.0117 40.3582C40.3384 40.4458 40.6601 40.5508 40.9756 40.6727C41.3662 40.8094 41.584 41.1942 41.7363 41.5516C37.2559 41.6131 32.7725 41.5516 28.292 41.5438C27.5635 41.4686 26.7783 41.3367 26.2109 40.8338C25.6836 40.3895 25.4951 39.616 25.6836 38.9637C25.8291 38.4822 26.2549 38.157 26.6943 37.9549M6.15918 43.2879C6.20703 43.0203 6.52148 43.0867 6.7207 43.0584C18.1458 43.0584 29.5716 43.0584 40.998 43.0584C41.8916 43.0818 42.79 43.0027 43.6787 43.116C43.6787 43.1766 43.6865 43.2977 43.6904 43.3582C31.334 43.3768 18.9834 43.3582 6.62305 43.369C6.4707 43.3484 6.28125 43.4041 6.16113 43.2869M38.5742 44.1863L38.9717 44.2225C39.0391 44.4139 39.0499 44.6207 39.0029 44.8182L38.4541 44.7967C38.4231 44.6928 38.4178 44.583 38.4388 44.4767C38.4597 44.3703 38.5062 44.2707 38.5742 44.1863ZM9.29395 44.449C9.63477 44.4403 9.97754 44.4393 10.3174 44.4373C10.3525 45.2498 10.2617 46.0692 10.3789 46.8787C10.9382 46.9589 11.505 46.9724 12.0674 46.9188C13.3711 46.9442 14.6797 46.992 15.9814 46.9051C15.9814 46.8377 15.9668 46.7039 15.9619 46.6365C15.7852 46.5438 15.6055 46.4285 15.3965 46.4412C14.2861 46.4334 13.1738 46.449 12.0625 46.4412C11.7695 46.4178 11.3906 46.449 11.2012 46.1639C10.9619 45.8084 11.1094 45.3602 11.124 44.9656C11.0838 44.9949 11.0509 45.033 11.0278 45.077C11.0048 45.1211 10.9923 45.1698 10.9912 45.2195C10.9832 45.5828 11.014 45.9458 11.083 46.3026C10.3018 46.0799 10.4346 44.9354 11.0322 44.576C11.3711 44.283 11.8281 44.492 12.2188 44.5233C12.125 44.704 12.0591 44.898 12.0234 45.0984C12.1104 45.2713 12.2627 45.4207 12.4707 45.4022C13.6152 45.4334 14.7627 45.3807 15.9092 45.4207C16.1237 45.4317 16.3321 45.4966 16.5149 45.6094C16.6977 45.7222 16.8491 45.8794 16.9551 46.0662C17.1387 46.5867 17.0469 47.1531 17.0654 47.6942C16.7786 47.7337 16.4897 47.7552 16.2002 47.7586C14.5869 47.7527 12.9775 47.7586 11.3613 47.7586C10.7607 47.7586 10.1416 47.8016 9.56152 47.6141C9.32617 47.5242 9.26855 47.2498 9.28516 47.0281C9.28516 46.1697 9.27832 45.3123 9.29492 44.4559M40.3271 44.4471C40.6729 44.4471 41.0186 44.4471 41.3652 44.4471C41.3809 45.2449 41.3574 46.0418 41.3799 46.8406C41.8828 46.9959 42.4121 46.9744 42.9258 46.8973C42.9604 46.4075 42.9673 45.9162 42.9463 45.4256C43.2812 45.4119 43.6172 45.4109 43.9531 45.4168C43.96 46.1815 43.9902 46.9471 43.9336 47.7117C43.2939 47.7928 42.6475 47.7527 42.0049 47.7625C41.5589 47.7783 41.1127 47.738 40.6768 47.6424C40.3428 47.5965 40.333 47.1922 40.2861 46.9324C40.2387 46.1045 40.2515 45.2742 40.3242 44.4481M19.0938 44.4715C19.4466 44.45 19.8005 44.45 20.1533 44.4715C20.1982 45.2742 20.1445 46.077 20.1875 46.8797C20.4014 46.9051 20.6162 46.9285 20.832 46.9481C20.8836 46.4361 20.8797 45.9201 20.8203 45.409C21.1562 45.409 21.4922 45.409 21.8281 45.4295C21.9873 45.9051 21.9727 46.4061 21.9717 46.9051C22.1299 46.91 22.2881 46.9197 22.4463 46.9305C22.5118 46.4229 22.494 45.9079 22.3936 45.4061C22.7432 45.4061 23.0938 45.4061 23.4443 45.4324C23.5508 45.9061 23.5107 46.3943 23.5225 46.8758H24.0625C24.0798 46.3868 24.0615 45.8973 24.0078 45.4109C24.3428 45.4178 24.6914 45.3709 25.0137 45.4686C25.1514 45.6541 25.124 45.8953 25.1318 46.1131C25.1318 46.6414 25.126 47.1697 25.1318 47.699C24.5107 47.7918 23.8818 47.7547 23.2568 47.7586C22.2139 47.7488 21.1689 47.7801 20.1318 47.7469C19.7568 47.6942 19.1807 47.7195 19.123 47.2205C19.042 46.3084 19.0908 45.3856 19.1025 44.4705M25.4883 44.4656C25.834 44.45 26.1797 44.45 26.5254 44.4656C26.5586 45.2537 26.5381 46.0418 26.5381 46.8299C27.2012 46.949 27.8789 46.8826 28.5488 46.8797C28.5596 46.3973 28.5625 45.9139 28.5488 45.4324C28.8926 45.4142 29.2363 45.4123 29.5801 45.4266C29.5684 46.1854 29.5742 46.9451 29.5752 47.7039C28.9209 47.8016 28.2588 47.7537 27.5996 47.7635C26.9971 47.7635 26.3789 47.8026 25.7949 47.6219C25.5332 47.5115 25.4824 47.1893 25.4824 46.9383C25.4766 46.116 25.4756 45.2918 25.4912 44.4695M32.1152 44.7986C32.333 44.5399 32.7012 44.5623 33.002 44.491C32.8379 44.7791 32.709 45.116 32.96 45.3992C34.165 45.4461 35.373 45.3943 36.5791 45.4217C36.8104 45.4209 37.0378 45.4814 37.2382 45.597C37.4385 45.7126 37.6047 45.8792 37.7197 46.0799C37.8271 46.3328 37.8174 46.6121 37.8428 46.8797C38.2029 46.8992 38.5637 46.8992 38.9238 46.8797C38.9336 46.3963 38.9365 45.9129 38.9238 45.4295C39.2725 45.4139 39.6211 45.4139 39.9717 45.4295C39.9648 46.1883 39.9717 46.9481 39.9648 47.7078C39.4409 47.7841 38.9094 47.7946 38.3828 47.7391C38.1875 47.7176 38.0381 47.5779 37.8887 47.4637C37.7676 47.6297 37.6074 47.7908 37.3818 47.7645C35.8008 47.7733 34.2207 47.7586 32.6387 47.7645C32.3067 47.7681 31.9749 47.7492 31.6455 47.7078C31.6455 47.4549 31.6455 47.2039 31.6455 46.9529C32.6826 46.9598 33.7197 46.9334 34.7568 46.9529C35.4209 46.907 36.0889 46.9754 36.75 46.8856C36.75 46.825 36.7412 46.7039 36.7383 46.6424C36.5615 46.5447 36.3818 46.4305 36.1719 46.4471C35.0615 46.4402 33.9492 46.4471 32.8389 46.4471C32.5381 46.4471 32.1934 46.4256 31.999 46.161C31.6201 45.7801 31.791 45.1512 32.1162 44.7938M6.55957 45.4256C7.11593 45.3649 7.67692 45.3594 8.23438 45.409C8.60156 45.4276 8.87109 45.783 8.89844 46.1317C8.93652 46.6522 8.9043 47.1756 8.9082 47.6942C8.24902 47.7811 7.58301 47.7518 6.9209 47.7469C6.6709 47.7186 6.38672 47.7176 6.18066 47.5574C6.0293 47.3211 6.06641 47.0252 6.0332 46.7596C6.66211 46.9412 7.32715 46.8895 7.97168 46.8572C7.93457 46.7059 7.87402 46.5399 7.71094 46.4959C7.32715 46.41 6.92969 46.4744 6.55273 46.5682C6.55273 46.1873 6.55273 45.8074 6.55957 45.4266M17.749 45.4031C18.082 45.3826 18.417 45.3807 18.75 45.3914C18.7676 46.1375 18.7686 46.8826 18.7607 47.6297C18.7803 48.0428 18.4414 48.3494 18.0996 48.5145C17.7559 48.7098 17.3447 48.6443 16.9805 48.5584C17.1758 48.4012 17.3965 48.2654 17.5605 48.0701C17.7471 47.8309 17.7559 47.5145 17.7559 47.2244C17.7559 46.617 17.75 46.0106 17.7461 45.4022M27.0947 48.0281C27.2138 48.0033 27.3369 48.0052 27.4551 48.0338C27.5733 48.0623 27.6837 48.1168 27.7783 48.1932C27.9463 48.0506 28.248 47.8856 28.4072 48.1209C28.5527 48.2996 28.3936 48.4832 28.2705 48.619C28.085 48.6629 27.9277 48.5379 27.7734 48.4588C27.5779 48.5767 27.3509 48.6319 27.123 48.617C27.1094 48.4217 27.1006 48.2264 27.0977 48.0311M28.6787 48.0076L29.1279 48.0125C29.1843 48.2121 29.174 48.4247 29.0986 48.618C28.9639 48.6229 28.8301 48.6307 28.6973 48.6385C28.627 48.5492 28.5873 48.4397 28.5839 48.3261C28.5806 48.2125 28.6138 48.1009 28.6787 48.0076ZM42.4141 48.0379C42.6094 48.032 42.8047 48.0301 43 48.0379C43 48.2332 42.9902 48.4227 42.9805 48.616C42.7998 48.5955 42.5264 48.7195 42.4453 48.491C42.3643 48.3543 42.4277 48.1883 42.418 48.0418M6.16406 49.6883C18.6693 49.6818 31.1735 49.6818 43.6768 49.6883C43.6768 49.7859 43.6768 49.8943 43.6768 49.9979C31.1722 49.9979 18.6676 49.9979 6.16309 49.9979V49.6912L6.16406 49.6883Z" fill="#F0C239"/>
</g>
<defs>
<clipPath id="clip0_1935_43278">
<rect width="50" height="50" fill="white"/>
</clipPath>
</defs>
</svg>
